<svg width="156" height="47" viewBox="0 0 156 47" fill="none" xmlns="http://www.w3.org/2000/svg">
<g clip-path="url(#clip0_3604_8139)">
<path d="M150.222 46.7998H5.77778C2.6 46.7998 0 44.1673 0 40.9498V5.84981C0 2.63231 2.6 -0.000194788 5.77778 -0.000194788H150.222C153.4 -0.000194788 156 2.63231 156 5.84981V40.9498C156 44.1673 153.4 46.7998 150.222 46.7998Z" fill="black"/>
<path d="M56.5136 30.9731H50.9755L49.6455 34.9002H47.2998L52.5454 20.3711H54.9825L60.2281 34.9002H57.8424L56.5136 30.9731ZM51.549 29.161H55.9389L53.7748 22.7877H53.7143L51.549 29.161Z" fill="white"/>
<path d="M71.5568 29.6041C71.5568 32.8959 69.7949 35.0108 67.1361 35.0108C66.4626 35.046 65.7928 34.8909 65.2034 34.5631C64.6139 34.2354 64.1287 33.7482 63.8033 33.1575H63.7529V38.4042H61.5786V24.3071H63.6833V26.069H63.7233C64.0637 25.4811 64.5571 24.9965 65.151 24.6667C65.745 24.337 66.4172 24.1744 67.0962 24.1963C69.7846 24.1963 71.5568 26.3215 71.5568 29.6041ZM69.3219 29.6041C69.3219 27.4595 68.2136 26.0496 66.5226 26.0496C64.8613 26.0496 63.7438 27.4892 63.7438 29.6041C63.7438 31.7385 64.8613 33.1678 66.5226 33.1678C68.2136 33.1678 69.3219 31.7682 69.3219 29.6041Z" fill="white"/>
<path d="M83.2155 29.6041C83.2155 32.8959 81.4536 35.0108 78.7948 35.0108C78.1213 35.046 77.4515 34.8909 76.8621 34.5631C76.2726 34.2353 75.7874 33.7482 75.4619 33.1575H75.4116V38.4042H73.2373V24.3071H75.3419V26.069H75.3819C75.7223 25.4811 76.2158 24.9965 76.8097 24.6667C77.4036 24.337 78.0758 24.1744 78.7548 24.1963C81.4433 24.1963 83.2155 26.3215 83.2155 29.6041ZM80.9806 29.6041C80.9806 27.4595 79.8723 26.0495 78.1813 26.0495C76.52 26.0495 75.4025 27.4892 75.4025 29.6041C75.4025 31.7384 76.52 33.1678 78.1813 33.1678C79.8723 33.1678 80.9806 31.7682 80.9806 29.6041H80.9806Z" fill="white"/>
<path d="M90.9211 30.8521C91.0822 32.2929 92.4819 33.2389 94.3945 33.2389C96.2272 33.2389 97.5458 32.2928 97.5458 30.9937C97.5458 29.866 96.7505 29.1907 94.8676 28.728L92.9846 28.2744C90.3167 27.6299 89.0781 26.3822 89.0781 24.3576C89.0781 21.8508 91.2627 20.1289 94.3648 20.1289C97.4349 20.1289 99.5396 21.8508 99.6104 24.3576H97.4155C97.2841 22.9077 96.0855 22.0324 94.3339 22.0324C92.5824 22.0324 91.3838 22.918 91.3838 24.2068C91.3838 25.234 92.1493 25.8384 94.022 26.3011L95.6228 26.6941C98.6037 27.3991 99.8423 28.5965 99.8423 30.7217C99.8423 33.4399 97.6771 35.1423 94.2334 35.1423C91.0113 35.1423 88.8359 33.4799 88.6953 30.852L90.9211 30.8521Z" fill="white"/>
<path d="M104.535 21.8008V24.3076H106.549V26.0295H104.535V31.8692C104.535 32.7764 104.938 33.1991 105.824 33.1991C106.063 33.195 106.302 33.1782 106.539 33.1488V34.8604C106.141 34.9348 105.736 34.9685 105.331 34.961C103.187 34.961 102.35 34.1554 102.35 32.1011V26.0295H100.81V24.3076H102.35V21.8008H104.535Z" fill="white"/>
<path d="M107.716 29.604C107.716 26.2711 109.679 24.1768 112.74 24.1768C115.811 24.1768 117.765 26.2711 117.765 29.604C117.765 32.946 115.821 35.0312 112.74 35.0312C109.659 35.0312 107.716 32.946 107.716 29.604ZM115.549 29.604C115.549 27.3177 114.502 25.9683 112.74 25.9683C110.978 25.9683 109.931 27.328 109.931 29.604C109.931 31.8994 110.978 33.2385 112.74 33.2385C114.502 33.2385 115.549 31.8994 115.549 29.604H115.549Z" fill="white"/>
<path d="M119.558 24.307H121.631V26.11H121.682C121.822 25.5469 122.152 25.0493 122.616 24.7007C123.08 24.3522 123.65 24.174 124.23 24.1962C124.48 24.1953 124.73 24.2225 124.975 24.2773V26.3111C124.658 26.2144 124.328 26.1701 123.998 26.1797C123.682 26.1669 123.367 26.2226 123.075 26.343C122.782 26.4633 122.519 26.6455 122.304 26.8771C122.089 27.1086 121.926 27.384 121.828 27.6843C121.729 27.9846 121.696 28.3027 121.732 28.6168V34.8999H119.558L119.558 24.307Z" fill="white"/>
<path d="M135 31.7886C134.707 33.7116 132.835 35.0312 130.439 35.0312C127.357 35.0312 125.444 32.9666 125.444 29.6543C125.444 26.3317 127.367 24.1768 130.347 24.1768C133.278 24.1768 135.121 26.19 135.121 29.4018V30.1467H127.639V30.2781C127.605 30.668 127.654 31.0607 127.782 31.4302C127.911 31.7998 128.117 32.1376 128.387 32.4214C128.656 32.7052 128.983 32.9284 129.346 33.0762C129.708 33.2239 130.098 33.2929 130.489 33.2785C131.003 33.3267 131.518 33.2077 131.959 32.9392C132.4 32.6708 132.742 32.2672 132.935 31.7886L135 31.7886ZM127.65 28.6271H132.945C132.965 28.2766 132.912 27.9258 132.789 27.5968C132.667 27.2678 132.478 26.9676 132.234 26.7152C131.99 26.4627 131.696 26.2634 131.372 26.1298C131.047 25.9962 130.698 25.9311 130.347 25.9386C129.993 25.9365 129.642 26.0045 129.314 26.1388C128.987 26.273 128.689 26.4708 128.438 26.7208C128.187 26.9707 127.989 27.2679 127.853 27.5951C127.718 27.9223 127.649 28.273 127.65 28.6271V28.6271Z" fill="white"/>
<path d="M51.2765 9.43468C51.7324 9.40197 52.1898 9.47083 52.6158 9.63631C53.0418 9.80179 53.4258 10.0597 53.7401 10.3916C54.0543 10.7234 54.291 11.1209 54.433 11.5553C54.5751 11.9897 54.6189 12.4502 54.5615 12.9035C54.5615 15.1339 53.356 16.4159 51.2765 16.4159H48.7549V9.43468H51.2765ZM49.8392 15.4286H51.1554C51.4812 15.4481 51.8071 15.3947 52.1096 15.2723C52.4121 15.1499 52.6835 14.9615 52.9041 14.721C53.1246 14.4805 53.2887 14.1939 53.3845 13.8819C53.4803 13.57 53.5053 13.2406 53.4577 12.9178C53.5018 12.5962 53.4743 12.2689 53.377 11.9592C53.2798 11.6496 53.1153 11.3653 52.8952 11.1267C52.6752 10.8881 52.4051 10.7011 52.1043 10.5791C51.8035 10.4572 51.4795 10.4033 51.1554 10.4212H49.8392V15.4286Z" fill="white"/>
<path d="M55.7862 13.7795C55.753 13.4332 55.7927 13.0839 55.9024 12.7539C56.0122 12.4239 56.1898 12.1204 56.4237 11.8631C56.6577 11.6057 56.9428 11.4 57.2609 11.2593C57.5789 11.1186 57.9229 11.0459 58.2707 11.0459C58.6185 11.0459 58.9625 11.1186 59.2805 11.2593C59.5986 11.4 59.8837 11.6057 60.1177 11.8631C60.3516 12.1204 60.5292 12.4239 60.639 12.7539C60.7488 13.0839 60.7884 13.4332 60.7552 13.7795C60.789 14.126 60.7499 14.4758 60.6404 14.8064C60.5308 15.137 60.3534 15.4409 60.1194 15.6988C59.8854 15.9567 59.6001 16.1628 59.2817 16.3038C58.9633 16.4448 58.6189 16.5177 58.2707 16.5177C57.9225 16.5177 57.5781 16.4448 57.2597 16.3038C56.9413 16.1628 56.656 15.9567 56.422 15.6988C56.188 15.4409 56.0106 15.137 55.9011 14.8064C55.7916 14.4758 55.7524 14.126 55.7862 13.7795ZM59.6858 13.7795C59.6858 12.6375 59.1728 11.9696 58.2724 11.9696C57.3686 11.9696 56.8602 12.6375 56.8602 13.7795C56.8602 14.9306 57.3687 15.5933 58.2724 15.5933C59.1728 15.5933 59.6858 14.926 59.6858 13.7795H59.6858Z" fill="white"/>
<path d="M67.3604 16.4159H66.2818L65.193 12.5357H65.1107L64.0264 16.4159H62.9581L61.5059 11.1475H62.5605L63.5042 15.1676H63.5819L64.6651 11.1475H65.6626L66.7457 15.1676H66.828L67.7672 11.1475H68.8069L67.3604 16.4159Z" fill="white"/>
<path d="M70.0283 11.1479H71.0292V11.9848H71.1069C71.2387 11.6842 71.461 11.4323 71.7428 11.264C72.0247 11.0957 72.352 11.0196 72.6791 11.0462C72.9355 11.0269 73.1929 11.0656 73.4322 11.1593C73.6716 11.253 73.8868 11.3994 74.062 11.5876C74.2371 11.7758 74.3676 12.0009 74.4439 12.2464C74.5202 12.4919 74.5403 12.7514 74.5027 13.0057V16.4163H73.4629V13.2668C73.4629 12.4202 73.095 11.9991 72.326 11.9991C72.152 11.991 71.9783 12.0206 71.8167 12.086C71.6552 12.1513 71.5097 12.2508 71.3902 12.3776C71.2707 12.5044 71.1801 12.6555 71.1245 12.8206C71.0689 12.9858 71.0496 13.161 71.0681 13.3342V16.4163H70.0283L70.0283 11.1479Z" fill="white"/>
<path d="M76.1597 9.09082H77.1994V16.4159H76.1597V9.09082Z" fill="white"/>
<path d="M78.6445 13.7796C78.6114 13.4333 78.6511 13.084 78.7609 12.7539C78.8707 12.4239 79.0483 12.1205 79.2823 11.8631C79.5162 11.6057 79.8014 11.4 80.1195 11.2593C80.4375 11.1186 80.7815 11.0459 81.1294 11.0459C81.4772 11.0459 81.8212 11.1186 82.1393 11.2593C82.4574 11.4 82.7425 11.6057 82.9765 11.8631C83.2104 12.1205 83.388 12.4239 83.4978 12.7539C83.6076 13.084 83.6473 13.4333 83.6142 13.7796C83.6479 14.1262 83.6087 14.476 83.4992 14.8065C83.3896 15.1371 83.2122 15.4411 82.9781 15.6989C82.7441 15.9568 82.4588 16.1629 82.1404 16.3039C81.822 16.4449 81.4776 16.5178 81.1294 16.5178C80.7811 16.5178 80.4368 16.4449 80.1184 16.3039C79.8 16.1629 79.5146 15.9568 79.2806 15.6989C79.0466 15.4411 78.8691 15.1371 78.7595 14.8065C78.65 14.476 78.6108 14.1262 78.6445 13.7796ZM82.5441 13.7796C82.5441 12.6376 82.0311 11.9697 81.1308 11.9697C80.227 11.9697 79.7186 12.6376 79.7186 13.7796C79.7186 14.9307 80.227 15.5934 81.1308 15.5934C82.0311 15.5934 82.5442 14.9261 82.5442 13.7796H82.5441Z" fill="white"/>
<path d="M84.709 14.9261C84.709 13.9777 85.4151 13.431 86.6685 13.3533L88.0956 13.2711V12.8163C88.0956 12.2599 87.7277 11.9457 87.017 11.9457C86.4366 11.9457 86.0344 12.1588 85.919 12.5312H84.9124C85.0186 11.6263 85.8698 11.0459 87.065 11.0459C88.3858 11.0459 89.1308 11.7034 89.1308 12.8163V16.416H88.1299V15.6756H88.0476C87.8806 15.9412 87.6461 16.1577 87.3681 16.303C87.0901 16.4484 86.7785 16.5173 86.4651 16.5028C86.244 16.5258 86.0204 16.5022 85.8089 16.4335C85.5974 16.3649 85.4027 16.2526 85.2372 16.1041C85.0718 15.9555 84.9393 15.7739 84.8483 15.5711C84.7573 15.3682 84.7099 15.1484 84.709 14.9261ZM88.0956 14.4759V14.0354L86.809 14.1177C86.0835 14.1663 85.7544 14.4131 85.7544 14.8775C85.7544 15.3517 86.1658 15.6276 86.7314 15.6276C86.8971 15.6444 87.0645 15.6277 87.2236 15.5784C87.3828 15.5292 87.5304 15.4484 87.6576 15.341C87.7849 15.2335 87.8893 15.1016 87.9645 14.9529C88.0398 14.8043 88.0843 14.6421 88.0956 14.4759Z" fill="white"/>
<path d="M90.4971 13.7794C90.4971 12.1147 91.3529 11.0601 92.684 11.0601C93.0132 11.0449 93.34 11.1238 93.6261 11.2874C93.9122 11.4511 94.1458 11.6928 94.2996 11.9844H94.3773V9.09082H95.417V16.4159H94.4207V15.5835H94.3384C94.1727 15.8731 93.931 16.1118 93.6394 16.2738C93.3478 16.4358 93.0174 16.515 92.684 16.5027C91.3437 16.5028 90.4971 15.4481 90.4971 13.7794ZM91.5711 13.7794C91.5711 14.8969 92.0979 15.5693 92.9788 15.5693C93.8551 15.5693 94.3967 14.8872 94.3967 13.784C94.3967 12.686 93.8494 11.9941 92.9788 11.9941C92.1035 11.9941 91.5711 12.6711 91.5711 13.7794H91.5711Z" fill="white"/>
<path d="M99.7193 13.7795C99.6862 13.4332 99.7258 13.0839 99.8355 12.7539C99.9453 12.4239 100.123 12.1204 100.357 11.8631C100.591 11.6057 100.876 11.4 101.194 11.2593C101.512 11.1186 101.856 11.0459 102.204 11.0459C102.552 11.0459 102.896 11.1186 103.214 11.2593C103.532 11.4 103.817 11.6057 104.051 11.8631C104.285 12.1204 104.462 12.4239 104.572 12.7539C104.682 13.0839 104.721 13.4332 104.688 13.7795C104.722 14.126 104.683 14.4758 104.573 14.8064C104.464 15.137 104.287 15.4409 104.053 15.6988C103.819 15.9567 103.533 16.1628 103.215 16.3038C102.896 16.4448 102.552 16.5177 102.204 16.5177C101.856 16.5177 101.511 16.4448 101.193 16.3038C100.874 16.1628 100.589 15.9567 100.355 15.6988C100.121 15.4409 99.9437 15.137 99.8342 14.8064C99.7247 14.4758 99.6855 14.126 99.7193 13.7795ZM103.619 13.7795C103.619 12.6375 103.106 11.9696 102.206 11.9696C101.302 11.9696 100.793 12.6375 100.793 13.7795C100.793 14.9306 101.302 15.5933 102.206 15.5933C103.106 15.5933 103.619 14.926 103.619 13.7795Z" fill="white"/>
<path d="M106.083 11.1479H107.084V11.9848H107.162C107.293 11.6842 107.516 11.4323 107.798 11.264C108.079 11.0957 108.407 11.0196 108.734 11.0462C108.99 11.0269 109.248 11.0656 109.487 11.1593C109.726 11.253 109.942 11.3994 110.117 11.5876C110.292 11.7758 110.422 12.0009 110.499 12.2464C110.575 12.4919 110.595 12.7514 110.557 13.0057V16.4163H109.518V13.2668C109.518 12.4202 109.15 11.9991 108.381 11.9991C108.207 11.991 108.033 12.0206 107.871 12.086C107.71 12.1513 107.564 12.2508 107.445 12.3776C107.325 12.5044 107.235 12.6555 107.179 12.8206C107.124 12.9858 107.104 13.161 107.123 13.3342V16.4163H106.083V11.1479Z" fill="white"/>
<path d="M116.432 9.83594V11.1716H117.574V12.0474H116.432V14.7565C116.432 15.3083 116.66 15.55 117.177 15.55C117.31 15.5495 117.442 15.5415 117.574 15.526V16.392C117.387 16.4254 117.198 16.4432 117.008 16.4452C115.852 16.4452 115.392 16.0384 115.392 15.0227V12.0474H114.555V11.1716H115.392V9.83594H116.432Z" fill="white"/>
<path d="M118.994 9.09082H120.025V11.9941H120.107C120.245 11.6907 120.474 11.4373 120.761 11.2684C121.049 11.0995 121.381 11.0234 121.713 11.0503C121.968 11.0365 122.223 11.079 122.46 11.175C122.697 11.271 122.909 11.4181 123.083 11.6057C123.256 11.7933 123.386 12.0168 123.463 12.2603C123.54 12.5038 123.562 12.7613 123.528 13.0144V16.4159H122.487V13.2709C122.487 12.4294 122.095 12.0032 121.36 12.0032C121.182 11.9886 121.002 12.0132 120.834 12.0752C120.666 12.1373 120.513 12.2354 120.387 12.3626C120.26 12.4898 120.163 12.6431 120.102 12.8118C120.041 12.9804 120.018 13.1603 120.034 13.3389V16.4159H118.994L118.994 9.09082Z" fill="white"/>
<path d="M129.591 14.9936C129.449 15.4751 129.143 15.8916 128.726 16.1702C128.309 16.4489 127.807 16.5719 127.308 16.5178C126.961 16.5269 126.616 16.4605 126.297 16.323C125.978 16.1854 125.693 15.9802 125.461 15.7215C125.23 15.4627 125.057 15.1567 124.956 14.8247C124.855 14.4926 124.827 14.1424 124.874 13.7985C124.828 13.4534 124.856 13.1025 124.957 12.7695C125.059 12.4364 125.23 12.129 125.461 11.868C125.691 11.607 125.975 11.3985 126.292 11.2567C126.61 11.1149 126.955 11.043 127.303 11.046C128.769 11.046 129.653 12.0475 129.653 13.7019V14.0647H125.933V14.123C125.917 14.3163 125.941 14.5109 126.005 14.6943C126.068 14.8777 126.169 15.0458 126.301 15.1879C126.433 15.33 126.593 15.443 126.772 15.5195C126.95 15.596 127.142 15.6344 127.336 15.6323C127.585 15.6621 127.837 15.6173 128.06 15.5036C128.283 15.3899 128.468 15.2123 128.59 14.9936L129.591 14.9936ZM125.933 13.2957H128.594C128.607 13.1189 128.583 12.9413 128.524 12.7743C128.464 12.6073 128.37 12.4547 128.248 12.3261C128.126 12.1976 127.978 12.096 127.815 12.028C127.651 11.9599 127.475 11.9269 127.297 11.9309C127.118 11.9287 126.939 11.9624 126.773 12.0302C126.606 12.098 126.455 12.1985 126.328 12.3257C126.2 12.4529 126.1 12.6042 126.032 12.7708C125.965 12.9374 125.931 13.1159 125.933 13.2957H125.933Z" fill="white"/>
<path d="M35.9999 22.9722C36.0124 21.9957 36.2718 21.0382 36.7539 20.1888C37.236 19.3394 37.9251 18.6258 38.757 18.1143C38.2285 17.3595 37.5313 16.7383 36.7206 16.3001C35.91 15.8618 35.0084 15.6186 34.0874 15.5898C32.1227 15.3836 30.218 16.7655 29.2168 16.7655C28.1962 16.7655 26.6548 15.6103 24.9948 15.6445C23.9212 15.6791 22.8748 15.9914 21.9576 16.5507C21.0405 17.11 20.2839 17.8974 19.7615 18.8361C17.4988 22.7537 19.1866 28.5113 21.3541 31.6781C22.4386 33.2287 23.706 34.9609 25.3645 34.8994C26.9873 34.8321 27.5934 33.8646 29.5524 33.8646C31.4931 33.8646 32.0618 34.8994 33.7538 34.8604C35.4952 34.8321 36.5924 33.3028 37.6388 31.7375C38.418 30.6326 39.0176 29.4114 39.4154 28.1193C38.4037 27.6914 37.5403 26.9751 36.9329 26.0598C36.3256 25.1445 36.001 24.0707 35.9999 22.9722Z" fill="white"/>
<path d="M32.8043 13.5069C33.7538 12.3671 34.2216 10.902 34.1083 9.42285C32.6577 9.57521 31.3178 10.2685 30.3554 11.3646C29.8849 11.9001 29.5246 12.523 29.295 13.1978C29.0654 13.8727 28.971 14.5861 29.0173 15.2974C29.7429 15.3049 30.4607 15.1476 31.1166 14.8375C31.7726 14.5273 32.3497 14.0724 32.8043 13.5069Z" fill="white"/>
<path d="M150.222 -0.00019455H5.77778C2.6 -0.00019455 0 2.63231 0 5.8498V40.9498C0 44.1673 2.6 46.7998 5.77778 46.7998H150.222C153.4 46.7998 156 44.1673 156 40.9498V5.8498C156 2.63231 153.4 -0.00019455 150.222 -0.00019455ZM150.222 0.935806C152.898 0.935806 155.076 3.14055 155.076 5.8498V40.9498C155.076 43.6595 152.898 45.8643 150.222 45.8643H5.77778C3.10197 45.8643 0.924444 43.6595 0.924444 40.9498V5.8498C0.924444 3.14055 3.10197 0.935806 5.77778 0.935806H150.222Z" fill="#A6A6A6"/>
</g>
<defs>
<clipPath id="clip0_3604_8139">
<rect width="156" height="46.8" fill="white"/>
</clipPath>
</defs>
</svg>
