<svg width="156" height="47" viewBox="0 0 156 47" fill="none" xmlns="http://www.w3.org/2000/svg">
<g clip-path="url(#clip0_3604_8076)">
<path d="M150.222 46.7998H5.77778C2.6 46.7998 0 44.1673 0 40.9498V5.8498C0 2.63231 2.6 -0.00019455 5.77778 -0.00019455H150.222C153.4 -0.00019455 156 2.63231 156 5.8498V40.9498C156 44.1673 153.4 46.7998 150.222 46.7998Z" fill="black"/>
<path d="M150.222 -0.00019455H5.77778C2.6 -0.00019455 0 2.63231 0 5.8498V40.9498C0 44.1673 2.6 46.7998 5.77778 46.7998H150.222C153.4 46.7998 156 44.1673 156 40.9498V5.8498C156 2.63231 153.4 -0.00019455 150.222 -0.00019455ZM150.222 0.935806C152.898 0.935806 155.076 3.14055 155.076 5.8498V40.9498C155.076 43.6595 152.898 45.8643 150.222 45.8643H5.77778C3.10197 45.8643 0.924444 43.6595 0.924444 40.9498V5.8498C0.924444 3.14055 3.10197 0.935806 5.77778 0.935806H150.222Z" fill="#A6A6A6"/>
<path d="M54.7885 12.0411C54.7885 13.0164 54.5024 13.7932 53.9295 14.3726C53.2787 15.0615 52.4306 15.4062 51.3879 15.4062C50.3894 15.4062 49.5405 15.057 48.8424 14.3576C48.143 13.6586 47.7939 12.7919 47.7939 11.7577C47.7939 10.7231 48.143 9.85684 48.8424 9.1574C49.5405 8.45843 50.3894 8.10871 51.3879 8.10871C51.8834 8.10871 52.3577 8.2065 52.8081 8.40161C53.2584 8.59719 53.6197 8.85681 53.8899 9.18196L53.2819 9.7963C52.8239 9.24378 52.1933 8.96775 51.3879 8.96775C50.6597 8.96775 50.0301 9.22609 49.4986 9.7431C48.9671 10.2607 48.7015 10.9318 48.7015 11.7577C48.7015 12.5836 48.9671 13.2547 49.4986 13.7723C50.0301 14.2893 50.6597 14.5477 51.3879 14.5477C52.1604 14.5477 52.8045 14.2879 53.3201 13.7678C53.6548 13.4289 53.8484 12.9579 53.9002 12.353H51.3879V11.5139H54.7403C54.7727 11.6964 54.7885 11.8714 54.7885 12.0411Z" fill="white"/>
<path d="M54.7885 12.0409H54.6732C54.6723 12.994 54.3966 13.7343 53.848 14.2901L53.8468 14.291L53.8463 14.2919C53.2162 14.9571 52.4063 15.2882 51.388 15.2896C50.4161 15.2882 49.6027 14.9535 48.9235 14.275C48.2458 13.5952 47.9106 12.7652 47.9093 11.7575C47.9106 10.7493 48.2458 9.91985 48.9235 9.24043C49.6027 8.56148 50.4161 8.22632 51.388 8.22492C51.8686 8.22492 52.3262 8.31957 52.7626 8.50828C53.1995 8.69839 53.5446 8.94753 53.8017 9.25685L53.89 9.18176L53.8085 9.09945L53.2004 9.71426L53.2819 9.7961L53.3707 9.72159C52.8914 9.14171 52.2186 8.84939 51.388 8.85113C50.6328 8.8502 49.9684 9.12262 49.4189 9.6593C48.8641 10.1977 48.5853 10.9066 48.5862 11.7575C48.5853 12.6084 48.8641 13.3173 49.4189 13.8557C49.9684 14.3924 50.6328 14.6648 51.388 14.6639C52.1861 14.6653 52.8663 14.3919 53.4017 13.8499C53.7594 13.4878 53.9621 12.9863 54.0152 12.3628L54.0259 12.2363H51.5033V11.6301H54.7403V11.5137L54.6268 11.5342C54.6584 11.7107 54.6732 11.8785 54.6732 12.0409H54.7885H54.9038C54.9038 11.8639 54.8876 11.6821 54.8538 11.4929L54.8367 11.3973H51.2727V12.3528V12.4692H53.9003V12.3528L53.7854 12.3427C53.7346 12.9286 53.5499 13.3697 53.2387 13.6853C52.7432 14.1837 52.1353 14.4296 51.388 14.431C50.6868 14.4301 50.0918 14.1863 49.5788 13.6884C49.0708 13.1922 48.8181 12.5588 48.8168 11.7575C48.8181 10.9562 49.0708 10.3228 49.5788 9.8266C50.0918 9.32868 50.6868 9.0849 51.388 9.08397C52.1677 9.08583 52.7564 9.34591 53.1937 9.87119L53.2748 9.96851L53.9715 9.26407L54.0462 9.18863L53.9782 9.10714C53.6949 8.76615 53.3175 8.49548 52.8536 8.29454C52.3888 8.09302 51.8983 7.99209 51.388 7.99209C50.363 7.99115 49.4784 8.35496 48.7609 9.07489C48.0408 9.79342 47.6778 10.6966 47.6787 11.7575C47.6778 12.818 48.0407 13.7216 48.7614 14.4406C49.4784 15.1601 50.363 15.5234 51.388 15.5225C52.4554 15.5234 53.3409 15.1654 54.0129 14.4528L53.9296 14.3724L54.0111 14.4547C54.6083 13.8521 54.9046 13.0381 54.9038 12.0409H54.7885Z" fill="white"/>
<path d="M60.103 9.12402H56.9526V11.3388H59.7937V12.1781H56.9526V14.3929H60.103V15.251H56.0645V8.2659H60.103V9.12402Z" fill="white"/>
<path d="M60.1026 9.12381V9.00739H56.8369V11.455H59.678V12.0612L56.8369 12.0615V14.5091H59.9873V15.1344H56.1793V8.38211H59.9873V9.12381H60.1026V9.00739V9.12381H60.2179V8.2657V8.14928H55.9487V15.3672H60.2179V14.3927V14.2762H57.0675V12.2943H59.9086V11.3385V11.2221H57.0675V9.24023H60.2179V9.12381H60.1026Z" fill="white"/>
<path d="M63.8515 15.251H62.962V9.12402H61.0298V8.2659H65.7837V9.12402H63.8515V15.251Z" fill="white"/>
<path d="M63.8516 15.2508V15.1344H63.0773V9.00739H61.1451V8.38211H65.6685V9.00739H63.7363V15.2508H63.8516V15.1344V15.2508H63.9669V9.24023H65.8991V8.2657V8.14928H60.9146V9.12381V9.24023H62.8467V15.3672H63.8516H63.9669V15.2508H63.8516Z" fill="white"/>
<path d="M69.2236 15.251V8.2659H70.1122V15.251H69.2236Z" fill="white"/>
<path d="M69.2232 15.2508H69.3385V8.38211H69.9965V15.1344H69.2232V15.2508H69.3385H69.2232V15.3672H70.1118H70.2271V8.14928H69.2232H69.1079V15.3672H69.2232V15.2508Z" fill="white"/>
<path d="M74.055 15.251H73.1655V9.12402H71.2334V8.2659H75.9872V9.12402H74.055V15.251Z" fill="white"/>
<path d="M74.0546 15.2498V15.1334H73.2803V9.00642H71.3483V8.38114H75.8715V9.00642H73.9393V15.2498H74.0546V15.1334V15.2498H74.1699V9.23925H76.1021V8.26472V8.1483H71.1177V9.12284V9.23925H73.0497V15.3662H74.0546H74.1699V15.2498H74.0546Z" fill="white"/>
<path d="M80.5704 13.7628C81.0825 14.2862 81.709 14.5477 82.4499 14.5477C83.1908 14.5477 83.8177 14.2862 84.3289 13.7628C84.8415 13.2394 85.0982 12.5703 85.0982 11.7577C85.0982 10.9451 84.8415 10.2761 84.3289 9.75264C83.8177 9.22923 83.1908 8.96775 82.4499 8.96775C81.709 8.96775 81.0825 9.22923 80.5704 9.75264C80.0592 10.2761 79.8025 10.9451 79.8025 11.7577C79.8025 12.5703 80.0592 13.2394 80.5704 13.7628ZM84.9865 14.3475C84.3063 15.0537 83.4605 15.4062 82.4499 15.4062C81.4383 15.4062 80.5929 15.0537 79.9143 14.3475C79.2336 13.6422 78.895 12.7787 78.895 11.7577C78.895 10.7367 79.2336 9.87314 79.9143 9.16788C80.5929 8.46157 81.4383 8.10871 82.4499 8.10871C83.4552 8.10871 84.2987 8.46343 84.982 9.17242C85.6643 9.8814 86.0057 10.7431 86.0057 11.7577C86.0057 12.7787 85.6651 13.6422 84.9865 14.3475Z" fill="white"/>
<path d="M80.57 13.7626L80.488 13.8444C81.0191 14.3888 81.6816 14.6653 82.4495 14.6639C83.2169 14.6653 83.8804 14.3888 84.4105 13.8444C84.945 13.2996 85.2139 12.5947 85.2131 11.7575C85.2139 10.9203 84.945 10.2154 84.4105 9.6706C83.8804 9.12623 83.2169 8.84973 82.4495 8.85113C81.6816 8.84973 81.0191 9.12623 80.488 9.6706C79.9548 10.2154 79.6854 10.9203 79.6868 11.7575C79.6854 12.5947 79.9548 13.2996 80.488 13.8444L80.57 13.7626L80.652 13.6807C80.1629 13.1782 79.9183 12.546 79.9174 11.7575C79.9183 10.969 80.1629 10.3369 80.652 9.83428C81.1456 9.33182 81.7351 9.08536 82.4495 9.08397C83.1633 9.08536 83.7542 9.33182 84.2466 9.83428C84.7366 10.3369 84.9811 10.969 84.9821 11.7575C84.9811 12.546 84.7366 13.1782 84.2466 13.6807C83.7542 14.1832 83.1633 14.4296 82.4495 14.431C81.7351 14.4296 81.1456 14.1832 80.652 13.6807L80.57 13.7626ZM84.9861 14.3473L84.9037 14.2664C84.2425 14.9504 83.434 15.2882 82.4495 15.2896C81.4645 15.2882 80.656 14.9504 79.9962 14.2664L79.9931 14.2628L79.9962 14.2664C79.3364 13.5801 79.0108 12.7525 79.0099 11.7575C79.0108 10.7625 79.3364 9.93487 79.9962 9.24858C80.656 8.56463 81.4645 8.22632 82.4495 8.22492C83.4277 8.22632 84.2343 8.56602 84.8992 9.25359C85.5612 9.94301 85.8887 10.7693 85.89 11.7575C85.8887 12.7525 85.5621 13.5801 84.9037 14.2664L84.9861 14.3473L85.069 14.4282C85.7679 13.7034 86.1214 12.8043 86.1206 11.7575C86.1214 10.7166 85.7666 9.81938 85.0644 9.0913C84.3619 8.36043 83.4818 7.9908 82.4495 7.99208C81.4118 7.9908 80.5291 8.35868 79.8309 9.08676V9.08629C79.1306 9.81158 78.7784 10.7107 78.7793 11.7575C78.7784 12.8043 79.1306 13.7034 79.8309 14.4287L79.8341 14.432L79.8309 14.4282C80.5291 15.1563 81.4118 15.5234 82.4495 15.5225C83.4867 15.5234 84.3695 15.1563 85.069 14.4282L84.9861 14.3473Z" fill="white"/>
<path d="M87.2529 15.251V8.2659H88.3348L91.6969 13.6998H91.7352L91.6969 12.3537V8.2659H92.5864V15.251H91.6586L88.1411 9.55372H88.1028L88.1411 10.9003V15.251H87.2529Z" fill="white"/>
<path d="M87.253 15.2508H87.3683V8.38211H88.2708L91.633 13.816H91.7353H91.8537L91.8123 12.3517V8.38211H92.4712V15.1344H91.7227L88.2051 9.43709H88.1029H87.9845L88.0258 10.902V15.1344H87.253V15.2508H87.3683H87.253V15.3672H88.1411H88.2564V10.8983L88.2182 9.55037L88.1029 9.55351V9.66993H88.1411V9.55351L88.0434 9.61544L91.5947 15.3672H92.5865H92.7018V8.14928H91.697H91.5817V12.3549L91.62 13.7028L91.7353 13.6996V13.5832H91.697V13.6996L91.7947 13.6378L88.3987 8.14928H87.253H87.1377V15.3672H87.253V15.2508Z" fill="white"/>
<path d="M123.412 35.0417H125.563V20.488H123.412V35.0417ZM142.79 25.7306L140.324 32.0403H140.25L137.69 25.7306H135.373L139.211 34.5496L137.023 39.4551H139.268L145.182 25.7306H142.79ZM130.589 33.3887C129.883 33.3887 128.901 33.033 128.901 32.1527C128.901 31.0293 130.126 30.5987 131.182 30.5987C132.128 30.5987 132.572 30.8047 133.148 31.0858C132.98 32.4337 131.831 33.3887 130.589 33.3887ZM130.848 25.4122C129.291 25.4122 127.678 26.1052 127.01 27.6405L128.919 28.4454C129.328 27.6405 130.087 27.3781 130.885 27.3781C131.998 27.3781 133.129 28.0525 133.148 29.2508V29.4004C132.758 29.1757 131.924 28.8388 130.904 28.8388C128.846 28.8388 126.75 29.9806 126.75 32.1153C126.75 34.0626 128.438 35.3172 130.328 35.3172C131.775 35.3172 132.572 34.6619 133.074 33.8944H133.148V35.0176H135.224V29.4377C135.224 26.8542 133.315 25.4122 130.848 25.4122ZM117.552 27.5022H114.492V22.5136H117.552C119.161 22.5136 120.074 23.8582 120.074 25.0079C120.074 26.1357 119.161 27.5022 117.552 27.5022ZM117.497 20.488H112.342V35.0417H114.492V29.5278H117.497C119.881 29.5278 122.225 27.7847 122.225 25.0079C122.225 22.2312 119.881 20.488 117.497 20.488ZM89.3856 33.3913C87.8993 33.3913 86.6549 32.1348 86.6549 30.4091C86.6549 28.6651 87.8993 27.3895 89.3856 27.3895C90.853 27.3895 92.0047 28.6651 92.0047 30.4091C92.0047 32.1348 90.853 33.3913 89.3856 33.3913ZM91.856 26.5455H91.7817C91.2989 25.9642 90.3697 25.4391 89.1997 25.4391C86.7477 25.4391 84.5003 27.6146 84.5003 30.4091C84.5003 33.1849 86.7477 35.3418 89.1997 35.3418C90.3697 35.3418 91.2989 34.8165 91.7817 34.2167H91.856V34.9293C91.856 36.8239 90.853 37.8366 89.237 37.8366C87.9182 37.8366 87.1009 36.8798 86.7661 36.0735L84.8903 36.8612C85.429 38.174 86.8594 39.7871 89.237 39.7871C91.7632 39.7871 93.8994 38.2864 93.8994 34.6292V25.7392H91.856V26.5455ZM95.3852 35.0417H97.54V20.4876H95.3852V35.0417ZM100.716 30.2404C100.661 28.3272 102.184 27.3522 103.28 27.3522C104.135 27.3522 104.859 27.7833 105.1 28.4027L100.716 30.2404ZM107.403 28.59C106.995 27.4831 105.75 25.4391 103.205 25.4391C100.679 25.4391 98.5803 27.4459 98.5803 30.3904C98.5803 33.1663 100.661 35.3418 103.447 35.3418C105.695 35.3418 106.995 33.9539 107.534 33.1476L105.862 32.022C105.305 32.8474 104.543 33.3913 103.447 33.3913C102.351 33.3913 101.571 32.8848 101.069 31.8911L107.626 29.1526L107.403 28.59ZM55.1634 26.9583V29.0588H60.1414C59.9928 30.2404 59.6028 31.103 59.0083 31.7033C58.2841 32.435 57.1509 33.2413 55.1634 33.2413C52.0984 33.2413 49.7024 30.7469 49.7024 27.6523C49.7024 24.5577 52.0984 22.0629 55.1634 22.0629C56.8167 22.0629 58.0237 22.7195 58.9155 23.5636L60.3829 22.082C59.1385 20.8814 57.4851 19.9624 55.1634 19.9624C50.9652 19.9624 47.436 23.4135 47.436 27.6523C47.436 31.8911 50.9652 35.3418 55.1634 35.3418C57.4297 35.3418 59.1385 34.592 60.4757 33.1849C61.8503 31.797 62.2777 29.8465 62.2777 28.2713C62.2777 27.7833 62.2407 27.3335 62.166 26.9583H55.1634ZM67.9373 33.3913C66.451 33.3913 65.1692 32.1535 65.1692 30.3904C65.1692 28.6087 66.451 27.3895 67.9373 27.3895C69.423 27.3895 70.7048 28.6087 70.7048 30.3904C70.7048 32.1535 69.423 33.3913 67.9373 33.3913ZM67.9373 25.4391C65.225 25.4391 63.0145 27.5209 63.0145 30.3904C63.0145 33.2413 65.225 35.3418 67.9373 35.3418C70.649 35.3418 72.8595 33.2413 72.8595 30.3904C72.8595 27.5209 70.649 25.4391 67.9373 25.4391ZM78.6754 33.3913C77.1896 33.3913 75.9077 32.1535 75.9077 30.3904C75.9077 28.6087 77.1896 27.3895 78.6754 27.3895C80.1612 27.3895 81.443 28.6087 81.443 30.3904C81.443 32.1535 80.1612 33.3913 78.6754 33.3913ZM78.6754 25.4391C75.9632 25.4391 73.7531 27.5209 73.7531 30.3904C73.7531 33.2413 75.9632 35.3418 78.6754 35.3418C81.3872 35.3418 83.5977 33.2413 83.5977 30.3904C83.5977 27.5209 81.3872 25.4391 78.6754 25.4391Z" fill="white"/>
<path d="M12.233 37.8232L12.1474 37.7405C11.8119 37.382 11.6138 36.8254 11.6138 36.1047V36.2743V10.5273C11.6138 10.525 11.6138 10.5232 11.6138 10.5214C11.6138 10.5236 11.6138 10.5255 11.6138 10.5278V10.6979C11.6138 9.91741 11.8447 9.3295 12.2317 8.97699L26.517 23.4006L12.233 37.8232ZM11.6138 10.52C11.6138 10.4558 11.6155 10.3936 11.6187 10.3322C11.6155 10.3931 11.6138 10.4558 11.6138 10.52ZM11.6187 10.3294C11.6187 10.3286 11.6187 10.3277 11.6191 10.3267C11.6187 10.3277 11.6187 10.3286 11.6187 10.3294ZM11.6191 10.3213C11.6191 10.3208 11.6191 10.3203 11.6191 10.3199C11.6191 10.3203 11.6191 10.3208 11.6191 10.3213Z" fill="url(#paint0_linear_3604_8076)"/>
<path d="M31.2781 28.3809L31.3868 28.3186L37.0282 25.082C37.5661 24.7733 37.9246 24.399 38.1034 24.003C37.925 24.399 37.5665 24.7738 37.0282 25.0825L31.3868 28.319L31.2781 28.3809ZM31.2795 28.2103L26.5171 23.4008L31.2791 18.5922L37.0282 21.8901C37.7583 22.309 38.1682 22.8488 38.2367 23.4004C38.2367 23.4008 38.2367 23.4018 38.2367 23.4026C38.1682 23.9529 37.7583 24.4932 37.0282 24.912L31.2795 28.2103Z" fill="url(#paint1_linear_3604_8076)"/>
<path d="M13.251 38.3721C12.852 38.3721 12.5038 38.2411 12.2322 37.9937L12.2327 37.9932C12.5042 38.2406 12.8529 38.3721 13.2519 38.3721C13.2865 38.3721 13.3217 38.3711 13.3573 38.3694C13.3212 38.3711 13.2856 38.3721 13.251 38.3721ZM13.2515 38.2015C12.8524 38.202 12.5042 38.0705 12.2327 37.8232V37.8228L26.5167 23.4001L31.2791 28.2096L14.5432 37.8109C14.0801 38.076 13.6414 38.2015 13.2515 38.2015ZM12.2287 37.9906C12.2034 37.9674 12.1786 37.9428 12.1543 37.9173L12.2287 37.9906Z" fill="url(#paint2_linear_3604_8076)"/>
<path d="M26.5168 23.4004L12.2314 8.9768C12.503 8.72987 12.8507 8.5989 13.2493 8.5989C13.6403 8.5989 14.0793 8.72487 14.5433 8.99042L31.2788 18.5918L26.5168 23.4004ZM31.3865 18.4831L14.5433 8.82045C14.0793 8.55478 13.6403 8.42882 13.2493 8.42882C13.2475 8.42882 13.2462 8.42882 13.2444 8.42882C13.2467 8.42882 13.2484 8.42882 13.2512 8.42882C13.6412 8.42882 14.0798 8.55431 14.5433 8.81998L31.3865 18.4831Z" fill="url(#paint3_linear_3604_8076)"/>
<path d="M13.3578 38.3701C13.7203 38.3492 14.1216 38.2232 14.5436 37.9817L31.2782 28.3809L14.5436 37.9817C14.122 38.2237 13.7203 38.3492 13.3578 38.3701ZM12.2327 37.9944L12.2291 37.9913C12.2304 37.9922 12.2317 37.9935 12.2327 37.9944ZM12.1547 37.9181L12.1475 37.9108V37.9104C12.1502 37.9131 12.1524 37.9157 12.1547 37.9181Z" fill="black"/>
<path d="M31.2778 28.3809L31.3873 28.3187L31.2778 28.3809Z" fill="url(#paint4_linear_3604_8076)"/>
<path d="M13.2524 38.3721C12.8533 38.3721 12.5047 38.2406 12.2331 37.9932L12.2327 37.9937C12.2317 37.9928 12.2304 37.9915 12.2291 37.9906L12.1547 37.9173C12.1524 37.915 12.1502 37.9123 12.1475 37.9097L12.2331 37.8232C12.5047 38.0705 12.8529 38.202 13.2519 38.2015C13.6419 38.2015 14.0806 38.076 14.5436 37.8109L31.2795 28.2096L31.3868 28.3179L31.2782 28.3802L14.5436 37.981C14.1216 38.2225 13.7203 38.3484 13.3578 38.3694C13.3221 38.3711 13.287 38.3721 13.2524 38.3721Z" fill="url(#paint5_linear_3604_8076)"/>
<path d="M12.1474 37.9111C11.8119 37.5527 11.6138 36.9961 11.6138 36.2753V36.2749C11.6138 36.9961 11.8119 37.5522 12.1474 37.9107V37.9111Z" fill="black"/>
<path d="M12.1474 37.9102C11.8119 37.5517 11.6138 36.9956 11.6138 36.2744V36.1047C11.6138 36.8255 11.8119 37.3821 12.1474 37.7405L12.233 37.8233L12.1474 37.9102Z" fill="url(#paint6_linear_3604_8076)"/>
<path d="M12.1475 37.9102L12.2338 37.8235V37.8238L12.1475 37.9102Z" fill="url(#paint7_linear_3604_8076)"/>
<path d="M38.103 24.0029C38.1918 23.8064 38.2365 23.6046 38.2365 23.4026C38.2365 23.4022 38.2365 23.4018 38.2365 23.4018C38.2365 23.6041 38.1918 23.806 38.103 24.0029Z" fill="black"/>
<path d="M31.3865 28.3184L31.2793 28.2101L37.028 24.9117C37.7581 24.493 38.168 23.9527 38.2365 23.4024C38.2365 23.6044 38.1918 23.8062 38.1032 24.0027C37.9243 24.3988 37.5659 24.7731 37.028 25.0818L31.3865 28.3184Z" fill="url(#paint8_linear_3604_8076)"/>
<path d="M38.2366 23.4004V23.3999C38.2362 22.7909 37.8331 22.1821 37.0282 21.72L31.3867 18.4835H31.3862L31.3867 18.4831L37.0282 21.7195C37.834 22.1816 38.2375 22.7914 38.2366 23.4004Z" fill="#404040"/>
<path d="M38.2364 23.4004C38.1679 22.8488 37.7581 22.309 37.028 21.8901L31.2788 18.5922L31.386 18.4839H31.3865L37.028 21.7205C37.8329 22.1825 38.236 22.7914 38.2364 23.4004Z" fill="url(#paint9_linear_3604_8076)"/>
<path d="M11.6138 10.5215C11.6138 10.521 11.6138 10.5206 11.6138 10.5201C11.6138 10.5206 11.6138 10.521 11.6138 10.5215ZM11.6187 10.3323C11.6187 10.3314 11.6187 10.3304 11.6187 10.3295C11.6187 10.3304 11.6187 10.3314 11.6187 10.3323ZM11.6191 10.3268C11.6191 10.325 11.6191 10.3232 11.6191 10.3214C11.6191 10.3232 11.6191 10.325 11.6191 10.3268ZM11.6191 10.32C11.6858 9.12401 12.3299 8.43318 13.241 8.42911C12.846 8.43144 12.5019 8.56241 12.2326 8.80747V8.807L12.2294 8.81026C12.201 8.8361 12.174 8.86346 12.1474 8.89164C11.8447 9.21493 11.6538 9.69923 11.6191 10.32Z" fill="#404040"/>
<path d="M11.6138 10.6982V10.5282C11.6138 10.5258 11.6138 10.524 11.6138 10.5218C11.6138 10.5213 11.6138 10.5208 11.6138 10.5204C11.6138 10.4562 11.6155 10.3935 11.6187 10.3326C11.6187 10.3316 11.6187 10.3307 11.6187 10.3298C11.6187 10.329 11.6187 10.328 11.6191 10.3271C11.6191 10.3252 11.6191 10.3235 11.6191 10.3216C11.6191 10.3212 11.6191 10.3207 11.6191 10.3202C11.6538 9.69949 11.8447 9.21519 12.1474 8.8919L12.2317 8.97735C11.8447 9.32987 11.6138 9.91778 11.6138 10.6982ZM12.2294 8.81052L12.2326 8.80727C12.2317 8.80866 12.2303 8.80959 12.2294 8.81052Z" fill="url(#paint10_linear_3604_8076)"/>
<path d="M31.2791 18.5918L14.5436 8.99046C14.0796 8.72491 13.6406 8.59895 13.2496 8.59895C12.851 8.59895 12.5033 8.72992 12.2317 8.97684L12.1475 8.89139C12.1741 8.86322 12.2011 8.83586 12.2294 8.81001C12.2304 8.80908 12.2317 8.80815 12.2327 8.80722C12.502 8.56216 12.8461 8.43119 13.2411 8.42886C13.242 8.42886 13.2433 8.42886 13.2447 8.42886C13.2465 8.42886 13.2478 8.42886 13.2496 8.42886C13.6406 8.42886 14.0796 8.55482 14.5436 8.82049L31.3868 18.4832L31.3863 18.4835L31.2791 18.5918Z" fill="url(#paint11_linear_3604_8076)"/>
</g>
<defs>
<linearGradient id="paint0_linear_3604_8076" x1="25.2503" y1="10.2557" x2="5.71342" y2="29.6049" gradientUnits="userSpaceOnUse">
<stop stop-color="#00A0FF"/>
<stop offset="0.00657445" stop-color="#00A1FF"/>
<stop offset="0.2601" stop-color="#00BEFF"/>
<stop offset="0.5122" stop-color="#00D2FF"/>
<stop offset="0.7604" stop-color="#00DFFF"/>
<stop offset="1" stop-color="#00E3FF"/>
</linearGradient>
<linearGradient id="paint1_linear_3604_8076" x1="39.1262" y1="23.4015" x2="11.2272" y2="23.4015" gradientUnits="userSpaceOnUse">
<stop stop-color="#FFE000"/>
<stop offset="0.4087" stop-color="#FFBD00"/>
<stop offset="0.7754" stop-color="#FFA500"/>
<stop offset="1" stop-color="#FF9C00"/>
</linearGradient>
<linearGradient id="paint2_linear_3604_8076" x1="28.7403" y1="26.0723" x2="2.24683" y2="52.3112" gradientUnits="userSpaceOnUse">
<stop stop-color="#FF3A44"/>
<stop offset="1" stop-color="#C31162"/>
</linearGradient>
<linearGradient id="paint3_linear_3604_8076" x1="8.52884" y1="0.321009" x2="20.3593" y2="12.0378" gradientUnits="userSpaceOnUse">
<stop stop-color="#32A071"/>
<stop offset="0.0685" stop-color="#2DA771"/>
<stop offset="0.4762" stop-color="#15CF74"/>
<stop offset="0.8009" stop-color="#06E775"/>
<stop offset="1" stop-color="#00F076"/>
</linearGradient>
<linearGradient id="paint4_linear_3604_8076" x1="39.1883" y1="23.4104" x2="11.0676" y2="23.4104" gradientUnits="userSpaceOnUse">
<stop stop-color="#CCB300"/>
<stop offset="0.4087" stop-color="#CC9700"/>
<stop offset="0.7754" stop-color="#CC8400"/>
<stop offset="1" stop-color="#CC7D00"/>
</linearGradient>
<linearGradient id="paint5_linear_3604_8076" x1="28.7408" y1="26.0723" x2="2.24727" y2="52.3112" gradientUnits="userSpaceOnUse">
<stop stop-color="#CC2E36"/>
<stop offset="1" stop-color="#9C0E4E"/>
</linearGradient>
<linearGradient id="paint6_linear_3604_8076" x1="25.2504" y1="10.2558" x2="5.71352" y2="29.6051" gradientUnits="userSpaceOnUse">
<stop stop-color="#008DE0"/>
<stop offset="0.00657445" stop-color="#008DE0"/>
<stop offset="0.2601" stop-color="#00A7E0"/>
<stop offset="0.5122" stop-color="#00B8E0"/>
<stop offset="0.7604" stop-color="#00C4E0"/>
<stop offset="1" stop-color="#00C7E0"/>
</linearGradient>
<linearGradient id="paint7_linear_3604_8076" x1="28.8728" y1="26.0935" x2="2.42448" y2="52.5425" gradientUnits="userSpaceOnUse">
<stop stop-color="#E0333C"/>
<stop offset="1" stop-color="#AB0F56"/>
</linearGradient>
<linearGradient id="paint8_linear_3604_8076" x1="39.126" y1="23.4013" x2="11.227" y2="23.4013" gradientUnits="userSpaceOnUse">
<stop stop-color="#E0C500"/>
<stop offset="0.4087" stop-color="#E0A600"/>
<stop offset="0.7754" stop-color="#E09100"/>
<stop offset="1" stop-color="#E08900"/>
</linearGradient>
<linearGradient id="paint9_linear_3604_8076" x1="39.126" y1="23.4016" x2="11.227" y2="23.4016" gradientUnits="userSpaceOnUse">
<stop stop-color="#FFE840"/>
<stop offset="0.4087" stop-color="#FFCE40"/>
<stop offset="0.7754" stop-color="#FFBC40"/>
<stop offset="1" stop-color="#FFB540"/>
</linearGradient>
<linearGradient id="paint10_linear_3604_8076" x1="25.2504" y1="10.2561" x2="5.71344" y2="29.6053" gradientUnits="userSpaceOnUse">
<stop stop-color="#40B8FF"/>
<stop offset="0.00657445" stop-color="#40B9FF"/>
<stop offset="0.2601" stop-color="#40CEFF"/>
<stop offset="0.5122" stop-color="#40DDFF"/>
<stop offset="0.7604" stop-color="#40E7FF"/>
<stop offset="1" stop-color="#40EAFF"/>
</linearGradient>
<linearGradient id="paint11_linear_3604_8076" x1="8.52914" y1="0.321053" x2="20.3596" y2="12.0378" gradientUnits="userSpaceOnUse">
<stop stop-color="#65B895"/>
<stop offset="0.0685" stop-color="#62BD95"/>
<stop offset="0.4762" stop-color="#50DB97"/>
<stop offset="0.8009" stop-color="#44ED98"/>
<stop offset="1" stop-color="#40F498"/>
</linearGradient>
<clipPath id="clip0_3604_8076">
<rect width="156" height="46.8" fill="white"/>
</clipPath>
</defs>
</svg>
