<svg width="15" height="15" viewBox="0 0 15 15" fill="none" xmlns="http://www.w3.org/2000/svg">
<path d="M14.16 7.0732C14.1065 6.9351 14.0262 6.80894 13.9237 6.70195L8.29875 1.07695C8.19386 0.972054 8.06933 0.888848 7.93228 0.83208C7.79523 0.775312 7.64834 0.746094 7.5 0.746094C7.20041 0.746094 6.91309 0.865105 6.70125 1.07695C6.59636 1.18184 6.51315 1.30637 6.45638 1.44342C6.39961 1.58047 6.3704 1.72736 6.3704 1.8757C6.3704 2.17529 6.48941 2.46261 6.70125 2.67445L10.4137 6.3757H1.875C1.57663 6.3757 1.29048 6.49422 1.07951 6.7052C0.868527 6.91618 0.75 7.20233 0.75 7.5007C0.75 7.79907 0.868527 8.08521 1.07951 8.29619C1.29048 8.50717 1.57663 8.6257 1.875 8.6257H10.4137L6.70125 12.3269C6.59581 12.4315 6.51211 12.556 6.455 12.693C6.39788 12.8301 6.36848 12.9772 6.36848 13.1257C6.36848 13.2742 6.39788 13.4213 6.455 13.5583C6.51211 13.6954 6.59581 13.8199 6.70125 13.9244C6.80583 14.0299 6.93026 14.1136 7.06735 14.1707C7.20444 14.2278 7.35149 14.2572 7.5 14.2572C7.64851 14.2572 7.79556 14.2278 7.93265 14.1707C8.06974 14.1136 8.19417 14.0299 8.29875 13.9244L13.9237 8.29945C14.0262 8.19246 14.1065 8.06629 14.16 7.9282C14.2725 7.6543 14.2725 7.34709 14.16 7.0732Z" fill="white"/>
</svg>
